# xmcd
#
# Track frame offsets:
#	150
#	12710
#	32407
#	43772
#	51007
#	59407
#	69762
#	77905
#	93675
#	102122
#
# Disc length: 1498 seconds
#
# Revision: 0
# Processed by: cddbd v1.5.2PL0 Copyright (c) Steve Scherf et al.
# Submitted via: dBpowerAMP V4.0
#
DISCID=7e05d80a
DTITLE=fats domino - more greatest hits live
DYEAR=1900
DGENRE=
TTITLE0=I'm Walking
TTITLE1=Let the 4 Winds Blow
TTITLE2=Going to the River
TTITLE3=Poor Me
TTITLE4=My GirlJosephine
TTITLE5=I can't go on
TTITLE6=My Toot Toot
TTITLE7=I Almost lost my mind
TTITLE8=WHEN THE SAINTS GO MARCHING IN
TTITLE9=THE FAT MAN
EXTD=
EXTT0=
EXTT1=
EXTT2=
EXTT3=
EXTT4=
EXTT5=
EXTT6=
EXTT7=
EXTT8=
EXTT9=
PLAYORDER=
